<svg width="54" height="54" viewBox="0 0 54 54" fill="none" xmlns="http://www.w3.org/2000/svg">
<rect x="54" y="54" width="54" height="54" rx="27" transform="rotate(-180 54 54)" fill="#101011"/>
<path d="M17.7188 26.4766L25.2813 19.2578C25.7109 18.8711 26.3555 18.8711 26.7422 19.3008C27.1289 19.7305 27.1289 20.375 26.6992 20.7617L20.9844 26.2187L35.5938 26.2188C36.1953 26.2188 36.625 26.6484 36.625 27.25C36.625 27.8086 36.1953 28.2813 35.5938 28.2813L20.9844 28.2812L26.6992 33.6953C27.1289 34.082 27.1289 34.7695 26.7422 35.1562C26.3555 35.5859 25.668 35.5859 25.2813 35.1992L17.7188 27.9805C17.5039 27.7656 17.375 27.5078 17.375 27.25C17.375 26.9492 17.5039 26.6914 17.7188 26.4766Z" fill="#F5F4ED"/>
</svg>
