<svg width="54" height="54" viewBox="0 0 54 54" fill="none" xmlns="http://www.w3.org/2000/svg">
<rect width="54" height="54" rx="27" fill="#101011"/>
<path d="M36.2812 27.5234L28.7187 34.7422C28.2891 35.1289 27.6445 35.1289 27.2578 34.6992C26.8711 34.2695 26.8711 33.625 27.3008 33.2383L33.0156 27.7812H18.4062C17.8047 27.7812 17.375 27.3516 17.375 26.75C17.375 26.1914 17.8047 25.7188 18.4062 25.7188H33.0156L27.3008 20.3047C26.8711 19.918 26.8711 19.2305 27.2578 18.8438C27.6445 18.4141 28.332 18.4141 28.7188 18.8008L36.2812 26.0195C36.4961 26.2344 36.625 26.4922 36.625 26.75C36.625 27.0508 36.4961 27.3086 36.2812 27.5234Z" fill="#F5F4ED"/>
</svg>
