<svg width="184" height="30" viewBox="0 0 184 30" fill="none" xmlns="http://www.w3.org/2000/svg">
<path d="M4.99625 12.2795H26.7563V19.2795H4.99625V12.2795ZM27.5163 -0.000490665V6.99951H5.27625L9.23625 3.03951V29.9995H0.95625V-0.000490665H27.5163ZM35.2338 24.2395V17.5595H55.9138V24.2395H35.2338ZM51.1938 -0.000490665L64.8338 29.9995H55.9938L44.5538 3.51951H46.9538L35.4738 29.9995H26.6338L40.2738 -0.000490665H51.1938ZM87.995 15.3195L88.675 13.7595C90.995 13.8128 92.9017 14.1728 94.395 14.8395C95.915 15.4795 97.0483 16.3862 97.795 17.5595C98.5417 18.7062 98.915 20.0395 98.915 21.5595C98.915 23.1862 98.5417 24.6395 97.795 25.9195C97.0483 27.1728 95.9283 28.1728 94.435 28.9195C92.9683 29.6395 91.1283 29.9995 88.915 29.9995H66.755L69.075 14.5995L66.755 -0.000490665H88.115C90.8883 -0.000490665 93.0483 0.652843 94.595 1.95951C96.1417 3.23951 96.915 5.02618 96.915 7.31951C96.915 8.57284 96.6217 9.77284 96.035 10.9195C95.4483 12.0662 94.5017 13.0395 93.195 13.8395C91.915 14.6128 90.1817 15.1062 87.995 15.3195ZM74.955 28.0795L71.755 24.1995H86.675C87.875 24.1995 88.8083 23.9062 89.475 23.3195C90.1417 22.7328 90.475 21.9195 90.475 20.8795C90.475 19.8395 90.115 19.0128 89.395 18.3995C88.675 17.7595 87.6083 17.4395 86.195 17.4395H73.875V11.7595H85.075C86.035 11.7595 86.835 11.4795 87.475 10.9195C88.1417 10.3328 88.475 9.54618 88.475 8.55951C88.475 7.75951 88.195 7.10618 87.635 6.59951C87.075 6.06618 86.275 5.79951 85.235 5.79951H71.795L74.955 1.91951L76.995 14.5995L74.955 28.0795ZM108.708 13.1195H119.628C120.961 13.1195 122.001 12.8128 122.748 12.1995C123.494 11.5862 123.868 10.7328 123.868 9.63951C123.868 8.51951 123.494 7.66618 122.748 7.07951C122.001 6.46618 120.961 6.15951 119.628 6.15951H107.548L111.268 2.19951V29.9995H102.988V-0.000490665H120.788C123.081 -0.000490665 125.081 0.412843 126.788 1.23951C128.494 2.03951 129.828 3.15951 130.788 4.59951C131.748 6.01284 132.228 7.69284 132.228 9.63951C132.228 11.5328 131.748 13.1995 130.788 14.6395C129.828 16.0795 128.494 17.1995 126.788 17.9995C125.081 18.7995 123.081 19.1995 120.788 19.1995H108.708V13.1195ZM113.188 15.9595H122.508L133.268 29.9995H123.668L113.188 15.9595ZM136.972 -0.000490665H145.252V29.9995H136.972V-0.000490665ZM168.559 16.9195V11.8795L183.279 29.9995H173.079L163.359 17.4395H167.439L157.679 29.9995H147.599L162.399 11.9195V16.8795L148.479 -0.000490665H158.839L167.639 11.3595H163.559L172.239 -0.000490665H182.439L168.559 16.9195Z" fill="#EBEEF0"/>
</svg>
