<svg width="26" height="23" viewBox="0 0 26 23" fill="none" xmlns="http://www.w3.org/2000/svg">
<path d="M1.65625 0.75L3.58984 0.75C4.53516 0.75 5.39453 1.30859 5.78125 2.125L23.4414 2.125C24.5586 2.125 25.375 3.19922 25.0742 4.31641L23.3125 10.8477C22.9687 12.2227 21.7227 13.125 20.3477 13.125L7.92969 13.125L8.1875 14.3711C8.27344 14.8438 8.70312 15.1875 9.17578 15.1875L21.5937 15.1875C22.1523 15.1875 22.625 15.6602 22.625 16.2188C22.625 16.8203 22.1523 17.25 21.5937 17.25L9.17578 17.25C7.71484 17.25 6.42578 16.2188 6.16797 14.7578L3.93359 3.11328C3.89062 2.94141 3.76172 2.8125 3.58984 2.8125L1.65625 2.8125C1.05469 2.8125 0.625 2.38281 0.625 1.78125C0.625 1.22266 1.05469 0.75 1.65625 0.75ZM6.25391 4.1875L7.54297 11.0625L20.3477 11.0625C20.8203 11.0625 21.207 10.7617 21.3359 10.332L22.9688 4.1875L6.25391 4.1875ZM8.1875 22.75C7.41406 22.75 6.76953 22.3633 6.38281 21.7188C5.99609 21.1172 5.99609 20.3008 6.38281 19.6562C6.76953 19.0547 7.41406 18.625 8.1875 18.625C8.91797 18.625 9.5625 19.0547 9.94922 19.6562C10.3359 20.3008 10.3359 21.1172 9.94922 21.7188C9.5625 22.3633 8.91797 22.75 8.1875 22.75ZM22.625 20.6875C22.625 21.4609 22.1953 22.1055 21.5937 22.4922C20.9492 22.8789 20.1328 22.8789 19.5312 22.4922C18.8867 22.1055 18.5 21.4609 18.5 20.6875C18.5 19.957 18.8867 19.3125 19.5312 18.9258C20.1328 18.5391 20.9492 18.5391 21.5937 18.9258C22.1953 19.3125 22.625 19.957 22.625 20.6875Z" fill="#EBEEF0"/>
</svg>
